<mxfile host="app.diagrams.net" modified="2024-03-24T04:52:09.520Z" agent="Mozilla/5.0 (Windows NT 10.0; Win64; x64) AppleWebKit/537.36 (KHTML, like Gecko) Chrome/122.0.0.0 Safari/537.36 Edg/122.0.0.0" version="24.1.0" etag="DzCJBD76CDeiIvxDzxtF" type="github">
  <diagram name="Page-1" id="Agw67kKyFhXCwQQsKGTo">
    <mxGraphModel>
      <root>
        <mxCell id="0" />
        <mxCell id="1" parent="0" />
      </root>
    </mxGraphModel>
  </diagram>
</mxfile>
